# xmcd
#
# Track frame offsets: 
#        150
#        17875
#        35475
#        49868
#        68416
#        87241
#        104045
#        118050
#        140972
#        156566
#        172277
#
# Disc length: 2525 seconds
#
# Revision: 0
# Processed by: cddbd v1.5.2PL0 Copyright (c) Steve Scherf et al.
# Submitted via: ExactAudioCopy v1.0b1
#
DISCID=a609db0b
DTITLE=Darren Watson - Saint Hilda's Faithless Boy
DYEAR=2010
DGENRE=Blues
TTITLE0=A Desperate Man
TTITLE1=Love Is An Ocean
TTITLE2=She Got It All
TTITLE3=He Don't Love You
TTITLE4=Can't Get Enough Of You
TTITLE5=Here In My Arms
TTITLE6=Be Careful With A Fool
TTITLE7=WTLIF
TTITLE8=My Love Will Never Die
TTITLE9=The Bitter Suite
TTITLE10=Saint Hilda's Faithless Boy
EXTD=
EXTT0=
EXTT1=
EXTT2=
EXTT3=
EXTT4=
EXTT5=
EXTT6=
EXTT7=
EXTT8=
EXTT9=
EXTT10=
PLAYORDER=
